# AST/ASF file generated using VICON BodyLanguage
# -----------------------------------------------
:version 1.10
:name VICON
:units
  mass 1.0
  length 0.45
  angle deg
:documentation
   .ast/.asf automatically generated from VICON data using
   VICON BodyBuilder and BodyLanguage model FoxedUp or BRILLIANT.MOD
:root
   order TX TY TZ RX RY RZ
   axis XYZ
   position 0 0 0  
   orientation 0 -0 0 
:bonedata
  begin
     id 1 
     name lhipjoint
     direction 0.432694 -0.693742 0.575759 
     length 2.19277 
     axis 0 -0 0  XYZ
  end
  begin
     id 2 
     name lfemur
     direction 0.34202 -0.939693 0  
     length 6.69022  
     axis 0 -0 20  XYZ
    dof rx ry rz
    limits (-160.0 20.0)
           (-70.0 70.0)
           (-60.0 70.0)
  end
  begin
     id 3 
     name ltibia
     direction 0.34202 -0.939693 0   
     length 6.50337   
     axis 0 -0 20   XYZ
    dof rx
    limits (-10.0 170.0)
  end
  begin
     id 4 
     name lfoot
     direction 0.158999 -0.435969 0.885805   
     length 2.70564   
     axis -90 -1.13533e-015 20   XYZ
    dof rx rz
    limits (-45.0 90.0)
           (-70.0 20.0)
  end
  begin
     id 5 
     name ltoes
     direction -0.00592919 0.00964381 0.999936   
     length 1.29929   
     axis -90 -1.13533e-015 20   XYZ
    dof rx
    limits (-90.0 20.0)
  end
  begin
     id 6 
     name rhipjoint
     direction -0.414359 -0.700339 0.581234   
     length 2.17212  
     axis 0 -0 0  XYZ 
  end
  begin
     id 7 
     name rfemur
     direction -0.34202 -0.939693 0   
     length 7.17659   
     axis 0 -0 -20   XYZ
    dof rx ry rz
    limits (-160.0 20.0)
           (-70.0 70.0)
           (-70.0 60.0)
  end
  begin
     id 8 
     name rtibia
     direction -0.34202 -0.939693 0   
     length 6.36669   
     axis 0 -0 -20   XYZ
    dof rx
    limits (-10.0 170.0)
 end
 begin
     id 9 
     name rfoot
     direction -0.137064 -0.37658 0.916188   
     length 2.22351  
     axis -90 1.13533e-015 -20   XYZ
    dof rx rz
    limits (-45.0 90.0)
           (-20.0 70.0)
  end
  begin
     id 10 
     name rtoes
     direction -0.000784077 -0.00289101 0.999996   
     length 1.09522   
     axis -90 1.13533e-015 -20   XYZ
    dof rx
    limits (-90.0 20.0)
  end
  begin
     id 11 
     name lowerback
     direction -0.0176242 0.984912 -0.172157   
     length 1.65301   
     axis 0 -0 0   XYZ
    dof rx ry rz
    limits (-20.0 45.0)
           (-30.0 30.0)
           (-30.0 30.0)
  end
  begin
     id 12 
     name upperback
     direction -0.00218128 0.998776 -0.0494072   
     length 1.67776   
     axis 0 -0 0   XYZ
    dof rx ry rz
    limits (-20.0 45.0)
           (-30.0 30.0)
           (-30.0 30.0)
  end
  begin
     id 13 
     name thorax
     direction 0.00544186 0.999658 0.0255711   
     length 1.72293   
     axis 0 -0 0   XYZ
    dof rx ry rz
    limits (-20.0 45.0)
           (-30.0 30.0)
           (-30.0 30.0)
  end
  begin
     id 14 
     name lowerneck
     direction -0.105325 0.983841 0.144785   
     length 2.14226   
     axis 0 -0 0   XYZ
    dof rx ry rz
    limits (-20.0 45.0)
           (-30.0 30.0)
           (-30.0 30.0)
  end
  begin
     id 15 
     name upperneck
     direction 0.0547957 0.988053 -0.144041   
     length 2.17508   
     axis 0 -0 0   XYZ
    dof rx ry rz
    limits (-20.0 45.0)
           (-30.0 30.0)
           (-30.0 30.0)
  end
  begin
     id 16
     name head
     direction 0.0247488 0.997534 -0.0656813  
     length 2.20048  
     axis 0 -0 0   XYZ
    dof rx ry rz
    limits (-20.0 45.0)
           (-30.0 30.0)
           (-30.0 30.0)
  end
  begin
     id 17 
     name lclavicle
     direction 0.820559 0.567247 -0.0701026  
     length 4.09615  
     axis 0 -0 0   XYZ
    dof ry rz
    limits (-20.0 10.0)
           (0.0 20.0)
  end
  begin
     id 18 
     name lhumerus
     direction 0.999977 -0.0067566 -9.96392e-005   
     length 4.59333   
     axis -180 -30 -90   XYZ
    dof rx ry rz
    limits (-60.0 90.0)
           (-90.0 90.0)
           (-90.0 90.0)
  end
  begin
     id 19
     name lradius
     direction 1 -4.48982e-011 -2.53425e-027   
     length 2.81151   
     axis -180 -30 -90   XYZ
    dof rx
    limits (-10.0 170.0)
  end
  begin
     id 20
     name lwrist
     direction 1 -4.48939e-011 -7.39254e-028   
     length 1.40576   
     axis 2.56395e-016 90 90   XYZ
    dof ry
    limits (-180.0 0.0)
 end
  begin
     id 21 
     name lhand
     direction 1 -4.48939e-011 -1.47851e-027   
     length 0.895651   
     axis 9.43423e-016 90 90   XYZ
    dof rx rz
    limits (-90.0 90.0)
           (-45.0 45.0)
  end
  begin
     id 22 
     name lfingers
     direction 1 -4.48978e-011 -2.95702e-027   
     length 0.722097   
     axis 1.88685e-015 90 90   XYZ
    dof rx
    limits (0.0 90.0)
  end
  begin
     id 23
     name lthumb
     direction 0.707107 -6.34931e-011 0.707107   
     length 1.03679   
     axis -90 45 -9.86935e-015   XYZ
    dof rx rz
    limits (-45.0 45.0)
           (-45.0 45.0)
  end
  begin
     id 24 
     name rclavicle
     direction -0.831414 0.553102 -0.0531864   
     length 4.24872  
     axis 0 -0 0   XYZ 
    dof ry rz
    limits (-10.0 20.0)
           (-20.0 0.0)
  end
  begin
     id 25 
     name rhumerus
     direction -0.999916 -0.000939607 0.0129331  
     length 4.74834   
     axis -180 30 90   XYZ
    dof rx ry rz
    limits (-90.0 60.0)
           (-90.0 90.0)
           (-90.0 90.0)
  end
  begin
     id 26 
     name rradius
     direction -1 -4.48956e-011 -1.31752e-027   
     length 2.79907   
     axis -180 30 90   XYZ
    dof rx
    limits (-10.0 170.0)
  end
  begin
     id 27 
     name rwrist
     direction -1 -4.4897e-011 -7.39254e-028   
     length 1.39954   
     axis 2.56395e-016 -90 -90   XYZ
    dof ry
    limits (-180.0 0.0)
  end
  begin
     id 28
     name rhand
     direction -0.999997 -0.00250697 0.000800838   
     length 0.953304   
     axis 9.43423e-016 -90 -90   XYZ
    dof rx rz
    limits (-90.0 90.0)
           (-45.0 45.0)
  end
  begin
     id 29
     name rfingers
     direction -1 -4.48954e-011 -2.95702e-027   
     length 0.763342   
     axis 1.88685e-015 -90 -90   XYZ
    dof rx
    limits (0.0 90.0)
  end
  begin
     id 30
     name rthumb
     direction -0.709701 -0.00217037 0.7045   
     length 1.10115   
     axis -90 -45 9.86935e-015   XYZ
    dof rx rz
    limits (-45.0 45.0)
           (-45.0 45.0)
  end
:hierarchy
  begin
    root lhipjoint rhipjoint lowerback
    lhipjoint lfemur
    lfemur ltibia
    ltibia lfoot
    lfoot ltoes
    rhipjoint rfemur
    rfemur rtibia
    rtibia rfoot
    rfoot rtoes
    lowerback upperback
    upperback thorax
    thorax lowerneck lclavicle rclavicle
    lowerneck upperneck
    upperneck head
    lclavicle lhumerus
    lhumerus lradius
    lradius lwrist
    lwrist lhand lthumb
    lhand lfingers
    rclavicle rhumerus
    rhumerus rradius
    rradius rwrist
    rwrist rhand rthumb
    rhand rfingers
  end

#!OML:ASF G:\ViconDB\ViconDB\414\test\team2\shane.ASF
:FULLY-SPECIFIED
:DEGREES
1
root 5.61574 21.2701 -16.0081 -10.4627 36.876 -10.4506
lowerback 10.3992 3.95593 11.9763
upperback -0.0808014 6.9965 4.02878
thorax -5.02618 3.21068 -3.36927
lowerneck -12.5484 -13.1752 -18.1477
upperneck 14.2679 -17.7681 17.2331
head 9.85079 -7.96584 6.32314
rclavicle -3.85798e-014 -1.35174e-014
rhumerus -17.7549 23.6859 -15.508
rradius 52.0076
rwrist 17.2788
rhand -38.7323 -19.8462
rfingers 7.12502
rthumb -11.7455 -49.4969
lclavicle -3.85798e-014 -1.35174e-014
lhumerus 17.8578 9.391 -21.5366
lradius 85.5846
lwrist 4.67732
lhand -50.3338 5.29549
lfingers 7.12502
lthumb -22.9095 33.9545
rfemur 16.7105 -8.62268 13.9769
rtibia 28.7218
rfoot 10.7953 0.0473923
rtoes -7.98995
lfemur 6.09968 1.97823 -10.4141
ltibia 45.6487
lfoot 3.7218 -27.5035
ltoes 2.88057
2
root 5.75313 21.6651 -15.897 -11.1683 36.0783 -11.0137
lowerback 9.84246 3.77929 13.5111
upperback -0.375142 6.9344 4.70748
thorax -4.96207 3.14695 -3.42812
lowerneck -11.7761 -13.0748 -18.3697
upperneck 14.8188 -17.7054 16.8599
head 9.86641 -8.01114 6.28334
rclavicle -2.60905e-014 -8.0309e-014
rhumerus -22.0293 21.9454 -19.8933
rradius 54.4013
rwrist 16.5676
rhand -40.2188 -23.2588
rfingers 7.12502
rthumb -13.1787 -52.8222
lclavicle -2.60905e-014 -8.0309e-014
lhumerus 13.1679 8.73594 -21.0053
lradius 87.6737
lwrist 4.8337
lhand -49.7914 6.11567
lfingers 7.12502
lthumb -22.3889 34.8382
rfemur 19.0523 -7.08649 14.2554
rtibia 27.7272
rfoot 10.1887 -1.90072
rtoes -8.89242
lfemur 6.56143 1.81904 -11.8991
ltibia 46.5465
lfoot 2.69607 -26.5487
ltoes 3.0565
3
root 5.90892 22.0741 -15.7871 -11.0162 34.5097 -11.7905
lowerback 8.72029 3.98506 15.6872
upperback -0.973775 7.34764 5.29135
thorax -4.75419 3.29304 -3.91135
lowerneck -10.6659 -13.3864 -18.6122
upperneck 15.3038 -18.3361 16.7433
head 9.96435 -8.37203 6.21628
rclavicle -1.10524e-013 -3.33958e-014
rhumerus -25.9913 20.3793 -24.1737
rradius 55.8065
rwrist 18.0977
rhand -40.9454 -24.9197
rfingers 7.12502
rthumb -13.879 -54.4366
lclavicle -1.10524e-013 -3.33958e-014
lhumerus 8.36383 7.62052 -21.0176
lradius 90.3421
lwrist 6.33316
lhand -50.3753 6.55311
lfingers 7.12502
lthumb -22.9492 35.2072
rfemur 20.0789 -5.5667 14.5897
rtibia 26.798
rfoot 9.57088 -4.76084
rtoes -7.888
lfemur 6.10725 2.30194 -13.0034
ltibia 46.7645
lfoot 2.04484 -26.564
ltoes 2.45225
4
root 6.0718 22.4958 -15.6821 -10.0276 32.1862 -12.3546
lowerback 7.66732 4.52415 18.1489
upperback -1.83835 8.21867 5.61293
thorax -4.70886 3.61605 -4.82511
lowerneck -10.0163 -13.586 -18.1802
upperneck 16.4096 -18.8859 16.3949
head 10.2526 -8.6354 5.96948
rclavicle -4.92986e-014 3.81667e-014
rhumerus -30.0143 20.177 -28.8556
rradius 57.2426
rwrist 19.0679
rhand -40.9482 -25.0408
rfingers 7.12502
rthumb -13.8817 -54.5575
lclavicle -4.92986e-014 3.81667e-014
lhumerus 4.34783 7.11356 -20.7749
lradius 92.3513
lwrist 6.80418
lhand -49.8563 7.0031
lfingers 7.12502
lthumb -22.4512 35.7182
rfemur 19.8594 -4.19802 14.4531
rtibia 26.1235
rfoot 8.7563 -7.01316
rtoes -6.98963
lfemur 4.74229 4.07064 -13.746
ltibia 46.7376
lfoot 1.44398 -28.2109
ltoes 2.06482
5
root 6.20958 22.9108 -15.5813 -8.57587 29.3941 -12.1417
lowerback 7.32205 5.09157 19.9116
upperback -2.56726 9.17723 5.83082
thorax -4.93775 3.96789 -5.5214
lowerneck -8.8817 -13.7708 -18.1652
upperneck 16.3887 -19.5291 17.2398
head 10.263 -8.91475 6.21129
rclavicle 4.67144e-014 -6.67916e-014
rhumerus -32.996 20.3512 -33.7189
rradius 58.2718
rwrist 18.7462
rhand -41.156 -22.9073
rfingers 7.12502
rthumb -14.0819 -52.4102
lclavicle 4.67144e-014 -6.67916e-014
lhumerus 0.182825 7.09791 -20.6046
lradius 94.0936
lwrist 7.24036
lhand -50.2849 8.28303
lfingers 7.12502
lthumb -22.8625 36.9479
rfemur 19.0044 -3.35689 13.1169
rtibia 25.7569
rfoot 8.13043 -8.19635
rtoes -8.23986
lfemur 3.22885 7.3575 -14.5138
ltibia 46.2068
lfoot 1.16323 -31.3842
ltoes 1.62923
